<svg
  ria-hidden="true" 
  style="position: absolute; width: 0; height: 0; overflow: hidden;" 
  version="1.1" 
  xmlns="http://www.w3.org/2000/svg" 
  xmlns:xlink="http://www.w3.org/1999/xlink">
  <defs>
    <symbol id="user" viewBox="0 0 24 24">
      <path fill="currentColor" d="M 11.999779,1.5 C 9.1286137,1.5 6.9117547,3.847615 7.1267927,6.804383 a 0.750075,0.750075 0 0 0 0,9.1e-5 C 7.3325377,9.630404 9.4472807,12 11.999779,12 c 2.55261,0 4.663586,-2.370297 4.872985,-5.194519 a 0.750075,0.750075 0 0 0 0,-9.2e-5 C 17.088911,3.887414 14.880377,1.5 11.999779,1.5 Z m 0,1.5 c 2.088146,0 3.535867,1.550093 3.377014,3.694611 C 15.218652,8.826902 13.572141,10.5 11.999779,10.5 10.427303,10.5 8.7779967,8.827137 8.6227637,6.695617 v -9.1e-5 C 8.4628497,4.496102 9.9022277,3 11.999779,3 Z m 0,10.5 c -2.1769923,0 -4.3676343,0.593993 -6.1495983,1.781799 -1.781963,1.187806 -3.150909,2.999042 -3.571655,5.33194 -0.07794,0.432038 -0.0036,0.879469 0.250214,1.250244 C 2.7825127,22.234758 3.2526667,22.5 3.7497787,22.5 H 20.249779 c 0.497145,0 0.967397,-0.265021 1.221313,-0.635834 0.253915,-0.370812 0.328337,-0.818389 0.250397,-1.250427 v -9.2e-5 C 21.30049,18.280777 19.93148,16.469596 18.149467,15.281799 16.367454,14.094003 14.17677,13.5 11.999779,13.5 Z m 0,1.5 c 1.901129,0 3.819101,0.531018 5.317748,1.529938 1.498648,0.99892 2.582358,2.436129 2.927766,4.350128 0.01136,0.06299 4.1e-5,0.101575 -0.0068,0.119934 H 3.7614967 c -0.0068,-0.01846 -0.01812,-0.05705 -0.0068,-0.119934 v -9.2e-5 c 0.345191,-1.91397 1.428819,-3.351125 2.927399,-4.350036 C 8.1807007,15.531027 10.098649,15 11.999779,15 Z" />
    </symbol>
    <symbol id="stats" viewBox="0 0 24 24">
      <path fill="currentColor" d="M 1.5,0.75 A 0.75,0.75 0 0 0 0.75,1.5 v 20.25 c 0,0.819543 0.680457,1.5 1.5,1.5 H 22.5 A 0.75,0.75 0 0 0 23.25,22.5 0.75,0.75 0 0 0 22.5,21.75 H 2.25 V 1.5 A 0.75,0.75 0 0 0 1.5,0.75 Z M 18.920654,4.5 c -0.9219,0 -1.687499,0.765599 -1.6875,1.6875 v 12.375 c 0,0.921901 0.7656,1.6875 1.6875,1.6875 h 1.875 c 0.921902,0 1.6875,-0.765599 1.6875,-1.6875 V 6.1875 c 0,-0.921901 -0.765598,-1.6875 -1.6875,-1.6875 z m 0,1.5 h 1.875 c 0.116848,0 0.1875,0.07065 0.1875,0.1875 v 12.375 c 0,0.116848 -0.07065,0.1875 -0.1875,0.1875 h -1.875 c -0.116848,0 -0.187499,-0.07065 -0.1875,-0.1875 V 6.1875 C 18.733154,6.070652 18.803804,6 18.920654,6 Z M 12.1875,7.5 C 11.265599,7.5 10.5,8.265599 10.5,9.1875 v 9.375 c 0,0.921901 0.765599,1.6875 1.6875,1.6875 h 1.875 c 0.921901,0 1.6875,-0.765599 1.6875,-1.6875 V 9.1875 C 15.75,8.265599 14.984401,7.5 14.0625,7.5 Z m 0,1.5 h 1.875 C 14.179348,9 14.25,9.07065 14.25,9.1875 v 9.375 c 0,0.116848 -0.07065,0.1875 -0.1875,0.1875 h -1.875 C 12.070652,18.75 12,18.679348 12,18.5625 V 9.1875 C 12,9.070652 12.07065,9 12.1875,9 Z m -6.75,0.75 C 4.515599,9.75 3.75,10.515599 3.75,11.4375 v 7.125 c 0,0.921901 0.765599,1.6875 1.6875,1.6875 h 1.875 C 8.234401,20.25 9,19.484401 9,18.5625 v -7.125 C 9,10.515599 8.234401,9.75 7.3125,9.75 Z m 0,1.5 h 1.875 c 0.116848,0 0.1875,0.07065 0.1875,0.1875 v 7.125 C 7.5,18.679348 7.429348,18.75 7.3125,18.75 H 5.4375 C 5.320652,18.75 5.25,18.679348 5.25,18.5625 v -7.125 C 5.25,11.320652 5.32065,11.25 5.4375,11.25 Z" />
    </symbol>
    <symbol id="refresh" viewBox="0 0 24 24">
      <path fill="currentColor" d="m 11.624084,2.2500042 c -5.3739815,4.99e-4 -9.7490805,4.3759 -9.7490805,9.7499968 0,5.374403 4.375594,9.749996 9.7499965,9.749996 h 9.1e-5 c 4.129568,-2.81e-4 7.816734,-2.606846 9.194547,-6.499784 a 0.74999975,0.74999975 0 0 0 -0.456757,-0.957275 0.74999975,0.74999975 0 0 0 -0.957275,0.456848 c -1.16757,3.298904 -4.281188,5.499937 -7.780606,5.500212 -4.5630835,0 -8.2499965,-3.686914 -8.2499965,-8.249997 0,-4.5630838 3.686913,-8.2499978 8.2499965,-8.2499978 h 4.58e-4 4.57e-4 c 2.251545,-0.0028 4.404498,0.917585 5.958799,2.546173 l 0.462159,0.537688 -2.385955,2.385955 c -0.4725,0.4725 -0.137798,1.2801818 0.530639,1.2801818 h 5.18344 a 0.74999975,0.74999975 0 0 0 0.749999,-0.7499998 v -5.183439 c 0,-0.668437 -0.807681,-1.004077 -1.280181,-0.53064 l -1.734283,1.734283 -0.41922,-0.487792 -0.01309,-0.01382 c -1.837735,-1.93018 -4.388143,-3.021652 -7.05322,-3.018584 z" />
    </symbol>
    <symbol id="company" viewBox="0 0 24 24">
      <path fill="currentColor" d="M 3.75,0.75 C 2.516244,0.75 1.5,1.766244 1.5,3 v 19.5 a 0.750075,0.750075 0 0 0 0.75,0.75 h 6 5.8125 c 0.04608,0 0.09053,-0.0073 0.13504,-0.0141 A 0.750075,0.750075 0 0 0 14.25,23.25 h 7.5 A 0.750075,0.750075 0 0 0 22.5,22.5 v -12 C 22.5,9.266244 21.483756,8.25 20.25,8.25 H 15 V 3 C 15,1.766244 13.983756,0.75 12.75,0.75 Z m 0,1.5 h 9 c 0.423097,0 0.75,0.326903 0.75,0.75 v 6.75 12 H 9 V 19.5 A 0.75,0.75 0 0 0 8.25,18.75 0.75,0.75 0 0 0 7.5,19.5 v 2.25 H 3 V 3 C 3,2.576903 3.326903,2.25 3.75,2.25 Z m 0.782776,1.500916 a 0.75,0.75 0 1 0 0.06473,1.49295 0.75,0.75 0 0 0 0.646362,-0.646362 0.75,0.75 0 0 0 -0.71109,-0.846588 z m 3.75,0 a 0.75,0.75 0 1 0 0.06473,1.49295 0.75,0.75 0 0 0 0.646362,-0.646362 0.75,0.75 0 0 0 -0.71109,-0.846588 z m 3.75,0 a 0.75,0.75 0 1 0 0.06473,1.49295 0.75,0.75 0 0 0 0.646362,-0.646362 0.75,0.75 0 0 0 -0.71109,-0.846588 z m -7.5,3.749999 A 0.75,0.75 0 1 0 4.597506,8.993866 0.75,0.75 0 0 0 5.243868,8.347504 0.75,0.75 0 0 0 4.532778,7.500915 Z m 3.75,0 A 0.75,0.75 0 1 0 8.347506,8.993866 0.75,0.75 0 0 0 8.993868,8.347504 0.75,0.75 0 0 0 8.282778,7.500915 Z m 3.661835,9.16e-4 a 0.7514063,0.74765625 45 0 0 -0.475983,0.216431 0.7514063,0.74765625 45 0 0 0.0027,1.059997 0.7514063,0.74765625 45 0 0 1.059997,0.0027 0.7514063,0.74765625 45 0 0 -0.0027,-1.059997 0.7514063,0.74765625 45 0 0 -0.584014,-0.219086 z M 15,9.75 h 5.25 c 0.423097,0 0.75,0.326903 0.75,0.75 v 11.25 h -6 z m 0.75,1.5 A 0.75,0.75 0 1 0 16.5,12 0.75,0.75 0 0 0 15.75,11.25 Z m 3,0 A 0.75,0.75 0 1 0 19.5,12 0.75,0.75 0 0 0 18.75,11.25 Z m -14.217224,9.15e-4 a 0.75,0.75 0 1 0 0.06473,1.492951 0.75,0.75 0 0 0 0.646362,-0.646362 0.75,0.75 0 0 0 -0.71109,-0.846589 z m 3.75,0 a 0.75,0.75 0 1 0 0.06473,1.492951 0.75,0.75 0 0 0 0.646362,-0.646362 0.75,0.75 0 0 0 -0.71109,-0.846589 z m 3.75,0 a 0.75,0.75 0 1 0 0.06473,1.492951 0.75,0.75 0 0 0 0.646362,-0.646362 0.75,0.75 0 0 0 -0.71109,-0.846589 z M 15.75,15 A 0.75,0.75 0 1 0 16.5,15.75 0.75,0.75 0 0 0 15.75,15 Z m 3,0 A 0.75,0.75 0 1 0 19.5,15.75 0.75,0.75 0 0 0 18.75,15 Z m -14.217224,9.15e-4 a 0.75,0.75 0 1 0 0.06473,1.492951 0.75,0.75 0 0 0 0.646362,-0.646362 0.75,0.75 0 0 0 -0.71109,-0.846589 z m 3.75,0 a 0.75,0.75 0 1 0 0.06473,1.492951 0.75,0.75 0 0 0 0.646362,-0.646362 0.75,0.75 0 0 0 -0.71109,-0.846589 z m 3.75,0 a 0.75,0.75 0 1 0 0.06473,1.492951 0.75,0.75 0 0 0 0.646362,-0.646362 0.75,0.75 0 0 0 -0.71109,-0.846589 z M 15.75,18.75 a 0.75,0.75 0 1 0 0.75,0.75 0.75,0.75 0 0 0 -0.75,-0.75 z m 3,0 a 0.75,0.75 0 1 0 0.75,0.75 0.75,0.75 0 0 0 -0.75,-0.75 z m -14.217224,9.15e-4 a 0.75,0.75 0 1 0 0.06473,1.492951 0.75,0.75 0 0 0 0.646362,-0.646362 0.75,0.75 0 0 0 -0.71109,-0.846589 z m 7.5,0 a 0.75,0.75 0 1 0 0.06473,1.492951 0.75,0.75 0 0 0 0.646362,-0.646362 0.75,0.75 0 0 0 -0.71109,-0.846589 z" />
    </symbol>
    <symbol id="deal" viewBox="0 0 24 24">
      <path fill="currentColor" d="m 6.75,1.5 c -1.647969,0 -3,1.352031 -3,3 v 15 c 0,1.647969 1.352031,3 3,3 h 10.5 c 1.647969,0 3,-1.352031 3,-3 v -9.128906 a 0.750075,0.750075 0 0 0 0,-9.2e-5 C 20.249906,9.77476 20.012745,9.202203 19.591186,8.780548 a 0.750075,0.750075 0 0 0 -9.1e-5,-9.1e-5 L 12.969543,2.158905 a 0.750075,0.750075 0 0 0 -9.1e-5,-9.2e-5 C 12.5478,1.737257 11.97524,1.50009 11.378998,1.5 a 0.750075,0.750075 0 0 0 -9.2e-5,0 z m 0,1.5 h 4.5 v 5.25 c 0,1.233756 1.016244,2.25 2.25,2.25 h 5.25 v 9 c 0,0.83731 -0.66269,1.5 -1.5,1.5 H 6.75 C 5.91269,21 5.25,20.33731 5.25,19.5 V 4.5 C 5.25,3.66269 5.91269,3 6.75,3 Z m 6,1.06073 L 17.68927,9 H 13.5 C 13.076903,9 12.75,8.673097 12.75,8.25 Z M 8.25,12.75 A 0.75,0.75 0 0 0 7.5,13.5 0.75,0.75 0 0 0 8.25,14.25 h 7.5 A 0.75,0.75 0 0 0 16.5,13.5 0.75,0.75 0 0 0 15.75,12.75 Z m 0,3.75 A 0.75,0.75 0 0 0 7.5,17.25 0.75,0.75 0 0 0 8.25,18 h 7.5 A 0.75,0.75 0 0 0 16.5,17.25 0.75,0.75 0 0 0 15.75,16.5 Z" />
    </symbol>
    <symbol id="stage" viewBox="0 0 24 24">
      <path fill="currentColor" d="m 2.1599998,2.2517895 c -1.1487,-0.0023 -1.81809299,1.450796 -1.069793,2.322326 l 7.905485,9.2080985 a 0.75007483,0.75007483 0 0 0 0.0034,0.0039 c 6.28e-4,7.22e-4 8.14e-4,0.0011 8.24e-4,0.0021 v 5.580596 c -0.0047,0.48215 0.305673,0.919129 0.762451,1.073547 a 0.75007483,0.75007483 0 0 0 0.0034,0.0012 l 3.7557672,1.249695 c 0.708415,0.237112 1.483151,-0.32423 1.478393,-1.071258 v -6.831023 c 1.1e-5,-9.61e-4 9.5e-5,-0.0014 7.33e-4,-0.0021 a 0.75007483,0.75007483 0 0 0 0.0059,-0.0068 l 7.903105,-9.2080065 9.2e-5,-9.1e-5 c 0.746885,-0.870059 0.08185,-2.320439 -1.06485,-2.322235 a 0.75007483,0.75007483 0 0 0 -0.0012,0 z m 0.201233,1.5 H 21.638664 l -7.770353,9.0533735 0.0059,-0.0067 c -0.237482,0.270129 -0.370452,0.616936 -0.374267,0.976593 a 0.75007483,0.75007483 0 0 0 0,0.008 v 6.322264 l -3,-0.998291 v -5.323973 a 0.75007483,0.75007483 0 0 0 0,-0.0052 c -0.0025,-0.359058 -0.133717,-0.705884 -0.369506,-0.976684 z" />
    </symbol>
    <symbol id="closeDate" viewBox="0 0 24 24">
      <path fill="currentColor" d="M 12.288092,5.3764258e-4 C 11.636458,-0.01954236 11.075429,0.52557164 11.077261,1.1776776 v 4.822139 a 0.92305273,0.92305273 0 0 0 0.923053,0.923053 0.92305273,0.92305273 0 0 0 0.923052,-0.923053 v -4.104159 c 5.180078,0.466735 9.230528,4.797539 9.230528,10.1040024 0,5.627723 -4.524562,10.164178 -10.15189,10.15358 C 6.3716535,22.14265 1.7841815,17.522001 1.8466205,11.894532 a 0.92314504,0.92314504 0 0 0 1.13e-4,-7.89e-4 c 0.02533,-2.4613694 0.944326,-4.8288864 2.586283,-6.6627234 a 0.92305273,0.92305273 0 0 0 -0.072,-1.303452 0.92305273,0.92305273 0 0 0 -1.303339,0.07189 C 1.1172645,6.1666306 0.03056753,8.9660436 6.2852981e-4,11.874815 l 1.13e-4,-7.88e-4 C -0.07296847,18.517379 5.3581535,23.98686 11.998624,23.999347 18.624809,24.011827 24,18.621989 24,11.999662 24,5.4792156 18.773631,0.15341264 12.288093,5.3964258e-4 Z M 6.4348415,6.0568316 a 0.46902617,0.46902617 0 0 0 -0.297017,0.72936 l 4.5575735,6.5190604 a 1.9159113,1.9159113 0 0 0 0.46547,0.458033 1.8749509,1.8749509 0 0 0 2.148982,-3.072598 L 6.7907895,6.1331136 a 0.46902617,0.46902617 0 0 0 -0.355948,-0.07628 z" />
    </symbol>
    <symbol id="money" viewBox="0 0 24 24">
      <path fill="currentColor" d="M 2.25,3 C 1.431974,3 0.75,3.681974 0.75,4.5 v 3 4.5 3 c 0,0.818026 0.681974,1.5 1.5,1.5 h 3 13.5 3 c 0.818026,0 1.5,-0.681974 1.5,-1.5 V 12 7.5 4.5 C 23.25,3.681974 22.568026,3 21.75,3 h -3 -13.5 z m 0,1.5 H 4.402954 C 4.133359,5.558188 3.308188,6.383359 2.25,6.652954 Z m 3.681885,0 h 12.13623 C 18.386634,6.376947 19.873053,7.863366 21.75,8.181885 v 3.13623 C 19.873053,11.636634 18.386634,13.123053 18.068115,15 H 5.931885 C 5.613366,13.123053 4.126947,11.636634 2.25,11.318115 V 8.181885 C 4.126947,7.863366 5.613366,6.376947 5.931885,4.5 Z m 13.665161,0 H 21.75 V 6.652954 C 20.691812,6.383359 19.866641,5.558188 19.597046,4.5 Z M 12,5.25 c -2.476395,0 -4.5,2.023605 -4.5,4.5 0,2.476395 2.023605,4.5 4.5,4.5 2.476395,0 4.5,-2.023605 4.5,-4.5 0,-2.476395 -2.023605,-4.5 -4.5,-4.5 z m 0,1.5 c 1.665736,0 3,1.334264 3,3 0,1.665736 -1.334264,3 -3,3 -1.665736,0 -3,-1.334264 -3,-3 0,-1.665736 1.334264,-3 3,-3 z M 2.25,12.847046 C 3.308188,13.116641 4.133359,13.941812 4.402954,15 H 2.25 Z m 19.5,0 V 15 H 19.597046 C 19.866641,13.941812 20.691812,13.116641 21.75,12.847046 Z M 3,17.25 A 0.75,0.75 0 0 0 2.25,18 0.75,0.75 0 0 0 3,18.75 H 21 A 0.75,0.75 0 0 0 21.75,18 0.75,0.75 0 0 0 21,17.25 Z M 4.5,19.5 A 0.75,0.75 0 0 0 3.75,20.25 0.75,0.75 0 0 0 4.5,21 h 15 A 0.75,0.75 0 0 0 20.25,20.25 0.75,0.75 0 0 0 19.5,19.5 Z" />
    </symbol>
    <symbol id="createDate" viewBox="0 0 24 24">
      <path fill="currentColor" d="M 6,1.5 A 0.75,0.75 0 0 0 5.25,2.25 V 3 H 4.5 c -1.649025,0 -3,1.350975 -3,3 v 1.5 12 c 0,1.649025 1.350975,3 3,3 h 15 c 1.649025,0 3,-1.350975 3,-3 V 7.5 6 c 0,-1.649025 -1.350975,-3 -3,-3 H 18.75 V 2.25 A 0.75,0.75 0 0 0 18,1.5 0.75,0.75 0 0 0 17.25,2.25 V 3 H 6.75 V 2.25 A 0.75,0.75 0 0 0 6,1.5 Z m -1.5,3 H 6 18 19.5 C 20.343972,4.5 21,5.156028 21,6 V 6.75 H 3 V 6 C 3,5.156028 3.656028,4.5 4.5,4.5 Z M 3,8.25 H 21 V 19.5 C 21,20.343972 20.343972,21 19.5,21 H 4.5 C 3.656028,21 3,20.343972 3,19.5 Z m 5.992035,1.5 c -1.274385,0 -2.08146,0.683591 -2.419739,1.255462 a 0.75,0.75 0 0 0 0.263672,1.027405 0.75,0.75 0 0 0 1.027405,-0.263672 C 7.931031,11.654818 8.260172,11.25 8.992035,11.25 c 0.456802,0 0.861883,0.131577 1.112732,0.322632 0.250848,0.191055 0.382141,0.401725 0.382141,0.797699 a 0.750075,0.750075 0 0 0 0,0.0085 c 0.0031,0.277005 -0.105366,0.542629 -0.301483,0.738281 a 0.750075,0.750075 0 0 0 -0.0068,0.007 c -0.312629,0.320065 -0.99266,0.499237 -1.184784,0.499237 a 0.75,0.75 0 0 0 -0.375,0.100433 0.75,0.75 0 0 0 -0.274475,0.274567 0.75,0.75 0 0 0 -0.100525,0.375 0.75,0.75 0 0 0 0.375,0.649475 0.75,0.75 0 0 0 0.375,0.100525 c 0.247861,0 1.032244,0.205905 1.411469,0.593719 a 0.750075,0.750075 0 0 0 9.15e-4,9.16e-4 c 0.205267,0.209154 0.328125,0.531412 0.328125,0.977966 0,0.442443 -0.151768,0.705773 -0.433868,0.928619 C 10.018408,17.84739 9.571983,18 9.04129,18 8.271789,18 7.757335,17.37294 7.63028,17.157623 A 0.75,0.75 0 0 0 6.603241,16.892853 0.75,0.75 0 0 0 6.33847,17.919892 C 6.668915,18.479886 7.544856,19.5 9.04129,19.5 c 0.809462,0 1.584604,-0.22099 2.189026,-0.698456 0.604422,-0.477465 1.004059,-1.241191 1.004059,-2.105621 0,-0.736129 -0.22006,-1.480303 -0.756592,-2.027618 l -1.83e-4,-1.84e-4 c -0.126615,-0.129463 -0.259917,-0.239535 -0.395416,-0.341308 0.05579,-0.04944 0.112264,-0.09658 0.16626,-0.151703 0.47854,-0.479431 0.74472,-1.131696 0.738189,-1.809082 -0.0014,-0.826575 -0.398947,-1.549459 -0.973022,-1.986695 C 10.438527,9.941331 9.721169,9.75 8.992035,9.75 Z m 7.293274,0.1875 a 0.750075,0.750075 0 0 0 -0.444947,0.14621 l -2.035308,1.5 a 0.75,0.75 0 0 0 -0.158844,1.048736 0.75,0.75 0 0 0 1.048736,0.158844 L 15.75,12.013733 V 18.5625 a 0.75,0.75 0 0 0 0.75,0.75 0.75,0.75 0 0 0 0.75,-0.75 v -7.875 a 0.750075,0.750075 0 0 0 -0.75,-0.75 z" />
    </symbol>
    <symbol id="ticket" viewBox="0 0 24 24">
      <path fill="currentColor" d="m 14.838533,0.74999575 c -0.24021,0 -0.480397,0.08948 -0.659369,0.26836405 h -9.2e-5 l -3.298585,3.298676 c -0.20411,0.204071 -0.357866,0.452943 -0.449074,0.726781 l -2.75e-4,6.41e-4 -1.83e-4,6.41e-4 c -0.03577,0.108053 -0.119032,0.191564 -0.226965,0.227697 l 0.001,-2.74e-4 c -0.273669,0.09119 -0.522519,0.244747 -0.726689,0.448524 l -1.83e-4,1.84e-4 -8.459688,8.4578562 -9.2e-5,9.1e-5 c -0.357778,0.357946 -0.357778,0.960884 0,1.31883 l 2.067226,2.067225 c 0.338346,0.341346 0.900862,0.36484 1.26653,0.05294 l 9.16e-4,-8.24e-4 10e-4,-8.24e-4 c 0.576211,-0.494862 1.418222,-0.46289 1.9553,0.07419 0.537079,0.537079 0.569051,1.379089 0.07419,1.955301 l -8.25e-4,0.001 -8.24e-4,9.16e-4 c -0.3119,0.365669 -0.288405,0.928184 0.05294,1.266531 l 2.067225,2.067225 c 0.357946,0.357778 0.960885,0.357778 1.31883,0 l 8.460238,-8.459688 2.74e-4,-2.74e-4 c 0.203778,-0.204171 0.357334,-0.45302 0.448525,-0.72669 l 1.83e-4,-6.41e-4 2.75e-4,-7.32e-4 c 0.03577,-0.108053 0.119032,-0.191564 0.226965,-0.227697 l -0.0011,3.66e-4 c 0.273817,-0.0912 0.522718,-0.244986 0.72678,-0.449074 l 9.2e-5,-9.2e-5 3.298584,-3.2985853 v -9.2e-5 c 0.357778,-0.357945 0.357778,-0.960791 0,-1.318737 v -9.2e-5 l -2.067225,-2.067226 -5.5e-4,-4.58e-4 c -0.338402,-0.340852 -0.900496,-0.364224 -1.265981,-0.05248 l -0.0012,0.001 -0.0012,0.0011 c -0.575376,0.495027 -1.416704,0.464344 -1.954568,-0.07108 -0.536339,-0.537036 -0.56829,-1.378392 -0.0741,-1.954568 l 6.41e-4,-7.33e-4 6.42e-4,-8.241e-4 c 0.311899,-0.365669 0.288405,-0.928092 -0.05294,-1.266439 l -2.067043,-2.069424 -1.83e-4,-1.83e-4 C 15.318982,0.83945475 15.078704,0.74997975 14.838495,0.74997975 Z m -1.84e-4,1.73145005 1.331561,1.333118 c -0.656753,1.131049 -0.493175,2.603776 0.460249,3.5575149 l 5.49e-4,4.58e-4 4.58e-4,5.49e-4 c 0.954906,0.951487 2.427154,1.112998 3.556965,0.455303 l 1.330737,1.330736 -2.897047,2.8970473 c -0.03927,0.03928 -0.08708,0.06882 -0.139769,0.08637 l -5.5e-4,1.84e-4 -5.49e-4,1.83e-4 c -0.02831,0.0095 -0.05485,0.02239 -0.08252,0.03316 l -0.448712,-0.448711 a 0.75031955,0.75031955 0 0 0 -0.724766,-0.194175 0.75031955,0.75031955 0 0 0 -0.336325,0.194175 0.75031955,0.75031955 0 0 0 0,1.061182 l 0.450266,0.450265 c -0.01077,0.02792 -0.0237,0.0547 -0.03316,0.08326 l 4.58e-4,-0.0014 c -0.0177,0.0531 -0.04747,0.101342 -0.08701,0.14096 L 9.161492,21.51895 7.830481,20.187847 C 8.487819,19.056765 8.324286,17.58347 7.370415,16.6296 6.416545,15.675729 4.94325,15.512196 3.812168,16.169534 l -1.33092,-1.330919 8.057143,-8.0554942 c 0.03962,-0.03954 0.08786,-0.06923 0.140959,-0.08692 l 5.5e-4,-1.83e-4 4.58e-4,-1.83e-4 c 0.02827,-0.0095 0.05479,-0.0224 0.08243,-0.03316 l 0.448708,0.448708 a 0.75031955,0.75031955 0 0 0 1.061181,0 0.75031955,0.75031955 0 0 0 0,-1.061091 l -0.450261,-0.450238 c 0.01062,-0.02752 0.02336,-0.05393 0.0327,-0.08207 0.01755,-0.05269 0.04709,-0.100501 0.08637,-0.139769 h 9.1e-5 z m -1.613938,4.900433 a 0.75031955,0.75031955 0 0 0 -0.465102,0.217164 0.75031955,0.75031955 0 0 0 4.57e-4,1.061091 l 0.516303,0.515845 a 0.75031955,0.75031955 0 0 0 1.06109,-4.59e-4 0.75031955,0.75031955 0 0 0 -4.58e-4,-1.061182 l -0.516302,-0.515844 a 0.75031955,0.75031955 0 0 0 -0.336417,-0.193991 0.75031955,0.75031955 0 0 0 -0.259571,-0.02262 z m 7.399789,0.137296 -0.0024,0.0021 c -3.29e-4,2.811e-4 -7.71e-4,3.741e-4 -0.0011,6.411e-4 0.0011,-9.71e-4 0.0024,-0.0018 0.0035,-0.0027 z m -5.203602,1.926999 a 0.75031955,0.75031955 0 0 0 -0.259571,0.02262 0.75031955,0.75031955 0 0 0 -0.336508,0.1940829 0.75031955,0.75031955 0 0 0 -4.58e-4,1.0610903 l 0.515845,0.516303 a 0.75031955,0.75031955 0 0 0 1.06109,4.58e-4 0.75031955,0.75031955 0 0 0 5.5e-4,-1.06109 L 15.885701,9.6633377 A 0.75031955,0.75031955 0 0 0 15.420598,9.4461738 Z M 3.37894,16.476115 c -8.52e-4,7.32e-4 -0.0018,0.0013 -0.0027,0.002 l 0.0019,-0.0016 c 2.11e-4,-1.87e-4 5.2e-4,-1.78e-4 7.33e-4,-3.66e-4 z m 4.144984,4.144984 c -1.87e-4,2.35e-4 -1.78e-4,5.22e-4 -3.66e-4,7.33e-4 l -0.0016,0.0019 c 7.32e-4,-8.48e-4 0.0013,-0.0018 0.002,-0.0027 z" />
    </symbol>
    <symbol id="scale" viewBox="0 0 24 24">
      <path fill="currentColor" d="M 6.75,1.5 C 3.854476,1.5 1.5,3.854476 1.5,6.75 v 10.5 c 0,2.895524 2.354476,5.25 5.25,5.25 h 10.5 c 2.895524,0 5.25,-2.354476 5.25,-5.25 V 6.75 C 22.5,3.854476 20.145524,1.5 17.25,1.5 Z m 0,1.5 h 10.5 C 19.340471,3 21,4.659529 21,6.75 v 10.5 C 21,19.340471 19.340471,21 17.25,21 H 6.75 C 4.659529,21 3,19.340471 3,17.25 V 6.75 C 3,4.659529 4.659529,3 6.75,3 Z M 12,3.945007 c -3.23703,0 -5.497606,1.476351 -6.736633,2.60495 C 4.322923,7.406635 4.22946,8.875035 5.053711,9.844025 l 1.561615,1.837738 a 0.750075,0.750075 0 0 0 0.0011,0.0013 c 0.629672,0.737661 1.7181,0.906376 2.541595,0.394043 l -0.0021,0.0014 c 0.676206,-0.417532 1.733068,-0.902527 2.845001,-0.902527 1.111934,0 2.168888,0.484995 2.845093,0.902527 l -0.0022,-0.0014 c 0.823495,0.512333 1.911923,0.343618 2.541595,-0.394043 a 0.750075,0.750075 0 0 0 0.0014,-0.0016 L 18.946319,9.844092 C 19.77057,8.875102 19.677107,7.406702 18.736663,6.550024 17.497608,5.421362 15.23703,3.945007 12,3.945007 Z m 0,1.500001 c 2.783589,0 4.672437,1.253687 5.726532,2.213836 0.354474,0.322901 0.387857,0.848115 0.07718,1.213348 a 0.750075,0.750075 0 0 0 -5.49e-4,6.41e-4 l -1.558777,1.836548 c -0.1551,0.181507 -0.405438,0.220254 -0.608185,0.09412 a 0.750075,0.750075 0 0 0 -0.0022,-0.0014 c -0.816293,-0.50403 -2.102211,-1.12619 -3.633088,-1.12619 -1.530876,0 -2.816794,0.62216 -3.633087,1.12619 a 0.750075,0.750075 0 0 0 -0.0021,0.0014 c -0.202824,0.126186 -0.453283,0.08738 -0.608368,-0.0943 L 6.196475,8.87247 A 0.750075,0.750075 0 0 0 6.196292,8.872195 C 5.885614,8.506962 5.918997,7.981748 6.273472,7.658847 7.327571,6.698704 9.216415,5.445011 12.000004,5.445011 Z" />
    </symbol>
    <symbol id="success" viewBox="0 0 24 24">
      <path fill="currentColor" d="m 12,2.25 c -5.374405,0 -9.75,4.375595 -9.75,9.75 0,5.374405 4.375595,9.75 9.75,9.75 5.374405,0 9.75,-4.375595 9.75,-9.75 0,-5.374405 -4.375595,-9.75 -9.75,-9.75 z m 0,1.5 c 4.563085,0 8.25,3.686915 8.25,8.25 0,4.563085 -3.686915,8.25 -8.25,8.25 C 7.436915,20.25 3.75,16.563085 3.75,12 3.75,7.436915 7.436915,3.75 12,3.75 Z m 4.370178,3.761261 A 0.75,0.75 0 0 0 15.92569,7.767608 l -5.745209,6.839631 -2.123016,-2.358948 a 0.75,0.75 0 0 0 -1.059174,-0.05576 0.75,0.75 0 0 0 -0.05576,1.059174 l 2.699982,3 a 0.750075,0.750075 0 0 0 1.131775,-0.01932 l 6.300018,-7.5 A 0.75,0.75 0 0 0 16.982386,7.675683 0.75,0.75 0 0 0 16.63064,7.511437 0.75,0.75 0 0 0 16.370172,7.511254 Z" />
    </symbol>
    <symbol id="failure" viewBox="0 0 24 24">
      <path fill="currentColor" d="m 12,2.25 c -5.374405,0 -9.75,4.375595 -9.75,9.75 0,5.374405 4.375595,9.75 9.75,9.75 5.374405,0 9.75,-4.375595 9.75,-9.75 0,-5.374405 -4.375595,-9.75 -9.75,-9.75 z m 0,1.5 c 4.563085,0 8.25,3.686915 8.25,8.25 0,4.563085 -3.686915,8.25 -8.25,8.25 C 7.436915,20.25 3.75,16.563085 3.75,12 3.75,7.436915 7.436915,3.75 12,3.75 Z m -3,4.5 a 0.75,0.75 0 0 0 -0.194092,0.02554 0.75,0.75 0 0 0 -0.336273,0.194092 0.75,0.75 0 0 0 0,1.06073 L 10.93927,12 8.469635,14.469635 a 0.75,0.75 0 0 0 0,1.06073 0.75,0.75 0 0 0 1.06073,0 L 12,13.06073 l 2.469635,2.469635 a 0.75,0.75 0 0 0 1.06073,0 0.75,0.75 0 0 0 0,-1.06073 L 13.06073,12 15.530365,9.530365 a 0.75,0.75 0 0 0 0,-1.06073 0.75,0.75 0 0 0 -1.06073,0 L 12,10.93927 9.530365,8.469635 A 0.75,0.75 0 0 0 9,8.25 Z" />
    </symbol>
    <symbol id="sort" viewBox="0 0 24 24">
      <path fill="currentColor" d="M 7.50003,3.7500411 A 0.74999503,0.74999503 0 0 0 6.750035,4.5000361 V 17.689219 L 2.780426,13.71961 a 0.74999503,0.74999503 0 0 0 -1.060723,0 0.74999503,0.74999503 0 0 0 0,1.060723 l 5.249966,5.249965 a 0.75007003,0.75007003 0 0 0 1.060722,0 l 5.249965,-5.249965 a 0.74999503,0.74999503 0 0 0 0,-1.060723 0.74999503,0.74999503 0 0 0 -1.060722,0 L 8.250025,17.689219 V 4.5000361 A 0.74999503,0.74999503 0 0 0 7.50003,3.7500411 Z m 8.80585,0.02554 a 0.75007003,0.75007003 0 0 0 -0.336271,0.194091 l -5.249965,5.249965 a 0.74999503,0.74999503 0 0 0 0,1.0607229 0.74999503,0.74999503 0 0 0 1.060722,0 L 15.749975,6.3107511 V 19.499934 a 0.74999503,0.74999503 0 0 0 0.749995,0.749995 0.74999503,0.74999503 0 0 0 0.749995,-0.749995 V 6.3107541 l 3.969609,3.9696089 a 0.74999503,0.74999503 0 0 0 1.060723,0 0.74999503,0.74999503 0 0 0 0,-1.0607229 L 17.030332,3.9696751 A 0.75007003,0.75007003 0 0 0 16.30588,3.7755841 Z" />
    </symbol>
    <symbol id="search" viewBox="0 0 24 24">
      <path fill="currentColor" d="m 10.363219,2.2497097 c -3.2795705,0 -6.2411945,1.978906 -7.4961685,5.008798 -1.254972,3.0298883 -0.559831,6.5230583 1.75914,8.8420293 2.318971,2.31897 5.8122335,3.014112 8.8421205,1.75914 0.764259,-0.316555 1.461124,-0.742226 2.076745,-1.253664 l 4.924476,4.924567 a 0.75001965,0.75001965 0 0 0 1.060758,0 0.75001965,0.75001965 0 0 0 0,-1.060758 l -4.92823,-4.928138 c 1.183989,-1.427468 1.874958,-3.245999 1.874958,-5.178175 -2.85e-4,-4.4721033 -3.641605,-8.1135143 -8.113707,-8.1137993 z m 0,1.500039 c 3.661489,2.35e-4 6.613527,2.952362 6.61376,6.6138523 -3.7e-5,2.677128 -1.609432,5.085777 -4.082719,6.110206 -2.473308,1.024438 -5.3143445,0.459122 -7.2074035,-1.433936 -1.893059,-1.893059 -2.458374,-4.734095 -1.433936,-7.2074043 1.024441,-2.473314 3.433133,-4.082718 6.1102985,-4.082718 z" />
    </symbol>
    <symbol id="open" viewBox="0 0 24 24">
      <path fill="currentColor" d="M 15.75,2.25 A 0.75,0.75 0 0 0 15,3 0.75,0.75 0 0 0 15.75,3.75 h 3.43927 l -9.219635,9.219635 a 0.75,0.75 0 0 0 0,1.06073 0.75,0.75 0 0 0 1.06073,0 L 20.25,4.81073 V 8.25 A 0.75,0.75 0 0 0 21,9 0.75,0.75 0 0 0 21.75,8.25 V 3 A 0.750075,0.750075 0 0 0 21,2.25 Z m -10.875,3 C 3.434137,5.25 2.25,6.434137 2.25,7.875 v 11.25 c 0,1.440863 1.184137,2.625 2.625,2.625 h 11.25 c 1.440863,0 2.625,-1.184137 2.625,-2.625 V 10.5 A 0.75,0.75 0 0 0 18,9.75 0.75,0.75 0 0 0 17.25,10.5 v 8.625 c 0,0.630203 -0.494797,1.125 -1.125,1.125 H 4.875 C 4.244797,20.25 3.75,19.755203 3.75,19.125 V 7.875 C 3.75,7.244797 4.244797,6.75 4.875,6.75 h 7.850647 a 0.75,0.75 0 0 0 0.75,-0.75 0.75,0.75 0 0 0 -0.75,-0.75 z" />
    </symbol>
    <symbol id="period" viewBox="0 0 24 24">
      <path fill="currentColor" d="M 6,1.5 A 0.75,0.75 0 0 0 5.25,2.25 V 3 H 4.5 c -1.649025,0 -3,1.350975 -3,3 v 13.5 c 0,1.649025 1.350975,3 3,3 h 15 c 1.649025,0 3,-1.350975 3,-3 V 6 c 0,-1.649025 -1.350975,-3 -3,-3 H 18.75 V 2.25 A 0.75,0.75 0 0 0 18,1.5 0.75,0.75 0 0 0 17.25,2.25 V 3 H 6.75 V 2.25 A 0.75,0.75 0 0 0 6,1.5 Z m -1.5,3 H 6 18 19.5 C 20.343972,4.5 21,5.156028 21,6 V 6.75 H 3 V 6 C 3,5.156028 3.656028,4.5 4.5,4.5 Z M 3,8.25 H 21 V 19.5 C 21,20.343972 20.343972,21 19.5,21 H 4.5 C 3.656028,21 3,20.343972 3,19.5 Z m 10.875,1.5 A 1.125,1.125 0 0 0 12.75,10.875 1.125,1.125 0 0 0 13.875,12 1.125,1.125 0 0 0 15,10.875 1.125,1.125 0 0 0 13.875,9.75 Z m 3.75,0 A 1.125,1.125 0 0 0 16.5,10.875 1.125,1.125 0 0 0 17.625,12 1.125,1.125 0 0 0 18.75,10.875 1.125,1.125 0 0 0 17.625,9.75 Z M 6.375,13.5 A 1.125,1.125 0 0 0 5.25,14.625 1.125,1.125 0 0 0 6.375,15.75 1.125,1.125 0 0 0 7.5,14.625 1.125,1.125 0 0 0 6.375,13.5 Z m 3.75,0 A 1.125,1.125 0 0 0 9,14.625 1.125,1.125 0 0 0 10.125,15.75 1.125,1.125 0 0 0 11.25,14.625 1.125,1.125 0 0 0 10.125,13.5 Z m 3.75,0 A 1.125,1.125 0 0 0 12.75,14.625 1.125,1.125 0 0 0 13.875,15.75 1.125,1.125 0 0 0 15,14.625 1.125,1.125 0 0 0 13.875,13.5 Z m 3.75,0 A 1.125,1.125 0 0 0 16.5,14.625 1.125,1.125 0 0 0 17.625,15.75 1.125,1.125 0 0 0 18.75,14.625 1.125,1.125 0 0 0 17.625,13.5 Z M 6.375,17.25 A 1.125,1.125 0 0 0 5.25,18.375 1.125,1.125 0 0 0 6.375,19.5 1.125,1.125 0 0 0 7.5,18.375 1.125,1.125 0 0 0 6.375,17.25 Z m 3.75,0 A 1.125,1.125 0 0 0 9,18.375 1.125,1.125 0 0 0 10.125,19.5 1.125,1.125 0 0 0 11.25,18.375 1.125,1.125 0 0 0 10.125,17.25 Z m 3.75,0 A 1.125,1.125 0 0 0 12.75,18.375 1.125,1.125 0 0 0 13.875,19.5 1.125,1.125 0 0 0 15,18.375 1.125,1.125 0 0 0 13.875,17.25 Z" />
    </symbol>
    <symbol id="close" viewBox="0 0 24 24">
      <path fill="currentColor" d="m 17.249945,5.9999883 a 0.74999131,0.74999131 0 0 0 -0.53036,0.21972 l -4.71958,4.7195797 -4.71958,-4.7195797 a 0.74999131,0.74999131 0 0 0 -0.72445,-0.19409 0.74999131,0.74999131 0 0 0 -0.33627,0.19409 0.74999131,0.74999131 0 0 0 0,1.06072 l 4.71958,4.7195797 -4.71958,4.71958 a 0.74999131,0.74999131 0 0 0 0,1.06072 0.74999131,0.74999131 0 0 0 1.06072,0 l 4.71958,-4.71958 4.71958,4.71958 a 0.74999131,0.74999131 0 0 0 1.06071,0 0.74999131,0.74999131 0 0 0 0,-1.06072 l -4.71958,-4.71958 4.71958,-4.7195797 a 0.74999131,0.74999131 0 0 0 0,-1.06072 0.74999131,0.74999131 0 0 0 -0.53035,-0.21972 z" />
    </symbol>
    <symbol id="icon-loader" viewBox="0 0 24 24">
      <path d="M11 2v4c0 0.552 0.448 1 1 1s1-0.448 1-1v-4c0-0.552-0.448-1-1-1s-1 0.448-1 1zM11 18v4c0 0.552 0.448 1 1 1s1-0.448 1-1v-4c0-0.552-0.448-1-1-1s-1 0.448-1 1zM4.223 5.637l2.83 2.83c0.391 0.391 1.024 0.391 1.414 0s0.391-1.024 0-1.414l-2.83-2.83c-0.391-0.391-1.024-0.391-1.414 0s-0.391 1.024 0 1.414zM15.533 16.947l2.83 2.83c0.391 0.391 1.024 0.391 1.414 0s0.391-1.024 0-1.414l-2.83-2.83c-0.391-0.391-1.024-0.391-1.414 0s-0.391 1.024 0 1.414zM2 13h4c0.552 0 1-0.448 1-1s-0.448-1-1-1h-4c-0.552 0-1 0.448-1 1s0.448 1 1 1zM18 13h4c0.552 0 1-0.448 1-1s-0.448-1-1-1h-4c-0.552 0-1 0.448-1 1s0.448 1 1 1zM5.637 19.777l2.83-2.83c0.391-0.391 0.391-1.024 0-1.414s-1.024-0.391-1.414 0l-2.83 2.83c-0.391 0.391-0.391 1.024 0 1.414s1.024 0.391 1.414 0zM16.947 8.467l2.83-2.83c0.391-0.391 0.391-1.024 0-1.414s-1.024-0.391-1.414 0l-2.83 2.83c-0.391 0.391-0.391 1.024 0 1.414s1.024 0.391 1.414 0z" />
    </symbol>
    <symbol id="icon-alert-triangle" viewBox="0 0 24 24">
      <path d="M11.148 4.374c0.073-0.123 0.185-0.242 0.334-0.332 0.236-0.143 0.506-0.178 0.756-0.116s0.474 0.216 0.614 0.448l8.466 14.133c0.070 0.12 0.119 0.268 0.128 0.434-0.015 0.368-0.119 0.591-0.283 0.759-0.18 0.184-0.427 0.298-0.693 0.301l-16.937-0.001c-0.152-0.001-0.321-0.041-0.481-0.134-0.239-0.138-0.399-0.359-0.466-0.607s-0.038-0.519 0.092-0.745zM9.432 3.346l-8.47 14.14c-0.422 0.731-0.506 1.55-0.308 2.29s0.68 1.408 1.398 1.822c0.464 0.268 0.976 0.4 1.475 0.402h16.943c0.839-0.009 1.587-0.354 2.123-0.902s0.864-1.303 0.855-2.131c-0.006-0.536-0.153-1.044-0.406-1.474l-8.474-14.147c-0.432-0.713-1.11-1.181-1.854-1.363s-1.561-0.081-2.269 0.349c-0.429 0.26-0.775 0.615-1.012 1.014zM11 9v4c0 0.552 0.448 1 1 1s1-0.448 1-1v-4c0-0.552-0.448-1-1-1s-1 0.448-1 1zM12 18c0.552 0 1-0.448 1-1s-0.448-1-1-1-1 0.448-1 1 0.448 1 1 1z" />
    </symbol>
    <symbol id="exit" viewBox="0 0 24 24">
      <path fill="currentColor" d="m 4.1249989,3.75 c -1.440863,0 -2.625,1.184137 -2.625,2.625 v 11.25 c 0,1.440863 1.184137,2.625 2.625,2.625 h 9.0000001 c 1.440863,0 2.625,-1.184137 2.625,-2.625 V 15.75 a 0.75,0.75 0 0 0 -0.75,-0.75 0.75,0.75 0 0 0 -0.75,0.75 v 1.875 c 0,0.630203 -0.494797,1.125 -1.125,1.125 H 4.1249989 c -0.630203,0 -1.125,-0.494797 -1.125,-1.125 V 6.375 c 0,-0.630203 0.494797,-1.125 1.125,-1.125 h 9.0000001 c 0.630203,0 1.125,0.494797 1.125,1.125 V 8.25 a 0.75,0.75 0 0 0 0.75,0.75 0.75,0.75 0 0 0 0.75,-0.75 V 6.375 c 0,-1.440863 -1.184137,-2.625 -2.625,-2.625 z M 17.804687,7.523438 a 0.75,0.75 0 0 0 -0.335938,0.195312 0.75,0.75 0 0 0 0,1.0625 L 19.937499,11.25 H 8.9531239 a 0.75,0.75 0 0 0 -0.75,0.75 0.75,0.75 0 0 0 0.75,0.75 H 19.937499 l -2.46875,2.46875 a 0.75,0.75 0 0 0 0,1.0625 0.75,0.75 0 0 0 1.0625,0 l 3.75,-3.75 A 0.750075,0.750075 0 0 0 22.499999,12 0.75,0.75 0 0 0 22.281249,11.46875 l -3.75,-3.75 A 0.75,0.75 0 0 0 17.804687,7.523438 Z" />
    </symbol>
    <symbol id="home" viewBox="0 0 24 24">
      <path fill="currentColor" d="m 12.002929,1.5000027 c -0.354778,-6.36e-4 -0.738161,0.08549 -1.056285,0.419236 l 0.02426,-0.02435 -9.9899845,9.5628743 a 0.7500293,0.7500293 0 0 0 -0.02316,1.060497 0.7500293,0.7500293 0 0 0 1.060496,0.02316 l 0.981393,-0.939459 v 9.397981 c 0,0.819575 0.680483,1.500059 1.500058,1.500059 h 4.500176 a 0.75010431,0.75010431 0 0 0 0.750029,-0.75003 v -6.375249 c 0,-0.215998 0.159016,-0.375014 0.3750145,-0.375014 h 3.750146 c 0.215999,0 0.375015,0.159016 0.375015,0.375014 v 6.375249 a 0.75010431,0.75010431 0 0 0 0.75003,0.75003 h 4.500175 c 0.819575,0 1.500059,-0.680484 1.500059,-1.500059 v -9.397981 l 0.981392,0.939459 A 0.7500293,0.7500293 0 0 0 23.04224,12.51826 0.7500293,0.7500293 0 0 0 23.01908,11.457763 L 19.500296,8.0894057 v -5.090164 a 0.75010431,0.75010431 0 0 0 -0.750029,-0.75003 h -2.250088 a 0.75010431,0.75010431 0 0 0 -0.750029,0.75003 v 1.500333 l -2.721054,-2.604686 0.026,0.02609 c -0.316875,-0.33462 -0.697387,-0.42034 -1.052165,-0.420976 z m -0.0027,1.500059 c 0.01428,2.5e-5 0.01833,0.0045 0.02115,0.0068 l 7.478869,7.1591543 v 10.83395 h -3.750146 v -5.62522 c 0,-1.026689 -0.848384,-1.875073 -1.875074,-1.875073 h -3.750146 c -1.0266885,0 -1.8750725,0.848384 -1.8750725,1.875073 v 5.62522 H 4.4996625 V 10.166016 L 11.978989,3.0064037 c 0.0028,-0.0021 0.007,-0.0063 0.02124,-0.0063 z m 5.24993,0.749205 h 0.75003 v 2.904258 l -0.75003,-0.717985 z" />
    </symbol>
    <symbol id="dowload" viewBox="0 0 24 24">
      <path fill="currentColor" d="m 12,1.500071 c -3.3506043,0 -5.59691,2.1145661 -6.5039062,4.3691406 C 4.1497147,6.0536394 2.8620058,6.4546401 1.8574219,7.2422585 0.74215593,8.1166543 0,9.4635432 0,11.13679 c 0,1.681244 0.76206789,3.088369 1.9433594,4 1.1812914,0.911631 2.7488559,1.363281 4.4316406,1.363281 H 9 a 0.75,0.75 0 0 0 0.75,-0.75 0.75,0.75 0 0 0 -0.75,-0.75 H 6.375 c -1.4109668,0 -2.6558999,-0.388818 -3.5136719,-1.050781 C 2.0035562,13.287326 1.5,12.386173 1.5,11.13679 1.5,9.8794098 1.9765931,9.054348 2.7832031,8.421946 3.5898131,7.789544 4.7678206,7.3952922 6.0703125,7.2715554 A 0.750075,0.750075 0 0 0 6.7148438,6.7539772 C 7.3066278,4.9083109 9.0974349,3.000071 12,3.000071 c 3.067493,0 5.621459,2.0809646 6.003906,5.7402344 a 0.750075,0.750075 0 0 0 0.708985,0.671875 c 0.912497,0.0452 1.928146,0.2835926 2.640625,0.7363286 0.712479,0.452735 1.146484,1.027438 1.146484,2.058593 0,1.067927 -0.374088,1.656934 -1.042969,2.103516 C 20.78815,14.7572 19.755154,15.000071 18.5625,15.000071 H 15 a 0.75,0.75 0 0 0 -0.75,0.75 0.75,0.75 0 0 0 0.75,0.75 h 3.5625 c 1.385472,0 2.696224,-0.253496 3.726562,-0.941406 C 23.319401,14.870754 24,13.688708 24,12.207102 24,10.688725 23.191818,9.5396804 22.158203,8.8828835 21.288607,8.3303105 20.286139,8.1005463 19.330078,7.9961648 18.638625,4.0478915 15.586747,1.500071 12,1.500071 Z m 0,8.25 a 0.75,0.75 0 0 0 -0.75,0.75 v 9.441406 L 9.5292969,18.22468 a 0.75,0.75 0 0 0 -1.0605469,0 0.75,0.75 0 0 0 0.00195,1.060547 l 2.9999999,2.996094 a 0.750075,0.750075 0 0 0 1.058594,0 l 3,-2.996094 a 0.75,0.75 0 0 0 0.002,-1.060547 0.75,0.75 0 0 0 -1.060547,0 L 12.75,19.941477 v -9.441406 a 0.75,0.75 0 0 0 -0.75,-0.75 z" />
    </symbol>
  </defs>
</svg>